<svg 
  xmlns="http://www.w3.org/2000/svg"
  viewBox="100 50 650 500"
  style="width:100%; max-width:500px; height:auto;"
  fill="none">

  <path fill="#fff" d="M227.94 152.84l-16.4-34.57-55.97 113.74-16.59 33.94-24.97-.18 77.18-156.59 19.06-38.94c.26-.53.89-1.14 1.15-1.34.34-.26 1.65.47 1.9.99l22.63 47.38 71.34 148.38-24.96.19-54.36-113Z"/>

  <circle fill="#fff" cx="210.63" cy="254.03" r="11.92"/>

  <polygon fill="#fff" points="361.28 486.29 361.28 313.63 337.44 313.63 337.44 486.29 337.44 510.12 361.28 510.12 491.37 510.12 491.37 486.29 361.28 486.29"/>

  <path fill="#fff" d="M491.34 72.09h-23.81l-.05 138.33-50.95-56.6-76.27-83.74c-.4-.44-1.05-.97-1.38-1.19-.26-.18-1.43.15-1.43.83v196.62h23.84l-.21-140.67 84.65 94.31 43.11 47.74c.69.77 1.71 1.03 2.08.93.25-.07.46-.84.46-1.38l-.03-195.18Z"/>

  <circle fill="#fff" cx="618.53" cy="325.55" r="11.92"/>

  <circle fill="#EC660E" cx="618.53" cy="412.38" r="51.07"/>

  <path fill="#fff" d="M691.32 414.5c0 40.2-32.59 72.79-72.79 72.79s-72.79-32.59-72.79-72.79V313.63h-23.84V414.5c0 14.81 3.34 28.83 9.3 41.38 15.5 32.66 48.77 55.25 87.33 55.25s71.83-22.59 87.33-55.25c5.95-12.54 9.3-26.57 9.3-41.38V313.63h-23.84V414.5Z"/>

  <path fill="#fff" d="M715.11 156.84h-96.92v23.84h72.78c-5.7 34.52-35.6 60.87-71.73 60.87-20.2 0-38.46-8.23-51.65-21.52-13.06-13.16-21.14-31.27-21.14-51.27 0-40.2 32.59-72.79 72.79-72.79 20.01 0 38.09 8.11 51.22 21.18l16.84-16.84c-17.46-17.38-41.47-28.19-68.06-28.19-53.37 0-96.63 43.26-96.63 96.63 0 26.59 10.74 50.66 28.12 68.13 17.5 17.6 41.73 28.5 68.51 28.5 49.33 0 89.99-36.97 95.87-84.71.16-1.32.27-2.67.38-4v-19.83h-.38Z"/>

  <path fill="#fff" d="M210.63 316.87c-53.37 0-96.63 43.26-96.63 96.63s43.26 96.63 96.63 96.63 96.63-43.26 96.63-96.63-43.26-96.63-96.63-96.63Zm0 169.42c-40.2 0-72.79-32.59-72.79-72.79s32.59-72.79 72.79-72.79 72.79 32.59 72.79 72.79-32.59 72.79-72.79 72.79Z"/>
</svg>
